<?xml version="1.0" standalone="no"?><svg xmlns="http://www.w3.org/2000/svg" viewBox="0 0 1440 320"><path fill="#D3AC71" fill-opacity="1" d="M0,192L40,181.3C80,171,160,149,240,122.7C320,96,400,64,480,42.7C560,21,640,11,720,58.7C800,107,880,213,960,234.7C1040,256,1120,192,1200,186.7C1280,181,1360,235,1400,261.3L1440,288L1440,320L1400,320C1360,320,1280,320,1200,320C1120,320,1040,320,960,320C880,320,800,320,720,320C640,320,560,320,480,320C400,320,320,320,240,320C160,320,80,320,40,320L0,320Z"></path></svg>